<?xml version="1.0" encoding="utf-8" standalone="no"?>
<!DOCTYPE svg PUBLIC "-//W3C//DTD SVG 1.1//EN"
  "http://www.w3.org/Graphics/SVG/1.1/DTD/svg11.dtd">
<svg xmlns:xlink="http://www.w3.org/1999/xlink" width="300.4pt" height="300.4pt" viewBox="0 0 300.4 300.4" xmlns="http://www.w3.org/2000/svg" version="1.1">
 <metadata>
  <rdf:RDF xmlns:dc="http://purl.org/dc/elements/1.1/" xmlns:cc="http://creativecommons.org/ns#" xmlns:rdf="http://www.w3.org/1999/02/22-rdf-syntax-ns#">
   <cc:Work>
    <dc:type rdf:resource="http://purl.org/dc/dcmitype/StillImage"/>
    <dc:date>2025-11-28T14:18:49.673072</dc:date>
    <dc:format>image/svg+xml</dc:format>
    <dc:creator>
     <cc:Agent>
      <dc:title>Matplotlib v3.10.7, https://matplotlib.org/</dc:title>
     </cc:Agent>
    </dc:creator>
   </cc:Work>
  </rdf:RDF>
 </metadata>
 <defs>
  <style type="text/css">*{stroke-linejoin: round; stroke-linecap: butt}</style>
 </defs>
 <g id="figure_1">
  <g id="patch_1">
   <path d="M 0 300.4 
L 300.4 300.4 
L 300.4 0 
L 0 0 
z
" style="fill: #ffffff"/>
  </g>
  <g id="axes_1">
   <g id="patch_2">
    <path d="M 64.4 64.4 
L 93 64.4 
L 93 35.8 
L 64.4 35.8 
z
" clip-path="url(#p2ff1076928)" style="fill: #08306b"/>
   </g>
   <g id="patch_3">
    <path d="M 93 64.4 
L 121.6 64.4 
L 121.6 35.8 
L 93 35.8 
z
" clip-path="url(#p2ff1076928)" style="fill: #08306b"/>
   </g>
   <g id="patch_4">
    <path d="M 178.8 64.4 
L 207.4 64.4 
L 207.4 35.8 
L 178.8 35.8 
z
" clip-path="url(#p2ff1076928)" style="fill: #08306b"/>
   </g>
   <g id="patch_5">
    <path d="M 207.4 64.4 
L 236 64.4 
L 236 35.8 
L 207.4 35.8 
z
" clip-path="url(#p2ff1076928)" style="fill: #08306b"/>
   </g>
   <g id="patch_6">
    <path d="M 35.8 93 
L 64.4 93 
L 64.4 64.4 
L 35.8 64.4 
z
" clip-path="url(#p2ff1076928)" style="fill: #08306b"/>
   </g>
   <g id="patch_7">
    <path d="M 93 93 
L 121.6 93 
L 121.6 64.4 
L 93 64.4 
z
" clip-path="url(#p2ff1076928)" style="fill: #08306b"/>
   </g>
   <g id="patch_8">
    <path d="M 178.8 93 
L 207.4 93 
L 207.4 64.4 
L 178.8 64.4 
z
" clip-path="url(#p2ff1076928)" style="fill: #08306b"/>
   </g>
   <g id="patch_9">
    <path d="M 236 93 
L 264.6 93 
L 264.6 64.4 
L 236 64.4 
z
" clip-path="url(#p2ff1076928)" style="fill: #08306b"/>
   </g>
   <g id="patch_10">
    <path d="M 35.8 121.6 
L 64.4 121.6 
L 64.4 93 
L 35.8 93 
z
" clip-path="url(#p2ff1076928)" style="fill: #08306b"/>
   </g>
   <g id="patch_11">
    <path d="M 64.4 121.6 
L 93 121.6 
L 93 93 
L 64.4 93 
z
" clip-path="url(#p2ff1076928)" style="fill: #08306b"/>
   </g>
   <g id="patch_12">
    <path d="M 207.4 121.6 
L 236 121.6 
L 236 93 
L 207.4 93 
z
" clip-path="url(#p2ff1076928)" style="fill: #08306b"/>
   </g>
   <g id="patch_13">
    <path d="M 236 121.6 
L 264.6 121.6 
L 264.6 93 
L 236 93 
z
" clip-path="url(#p2ff1076928)" style="fill: #08306b"/>
   </g>
   <g id="patch_14">
    <path d="M 35.8 207.4 
L 64.4 207.4 
L 64.4 178.8 
L 35.8 178.8 
z
" clip-path="url(#p2ff1076928)" style="fill: #08306b"/>
   </g>
   <g id="patch_15">
    <path d="M 64.4 207.4 
L 93 207.4 
L 93 178.8 
L 64.4 178.8 
z
" clip-path="url(#p2ff1076928)" style="fill: #08306b"/>
   </g>
   <g id="patch_16">
    <path d="M 207.4 207.4 
L 236 207.4 
L 236 178.8 
L 207.4 178.8 
z
" clip-path="url(#p2ff1076928)" style="fill: #08306b"/>
   </g>
   <g id="patch_17">
    <path d="M 236 207.4 
L 264.6 207.4 
L 264.6 178.8 
L 236 178.8 
z
" clip-path="url(#p2ff1076928)" style="fill: #08306b"/>
   </g>
   <g id="patch_18">
    <path d="M 35.8 236 
L 64.4 236 
L 64.4 207.4 
L 35.8 207.4 
z
" clip-path="url(#p2ff1076928)" style="fill: #08306b"/>
   </g>
   <g id="patch_19">
    <path d="M 93 236 
L 121.6 236 
L 121.6 207.4 
L 93 207.4 
z
" clip-path="url(#p2ff1076928)" style="fill: #08306b"/>
   </g>
   <g id="patch_20">
    <path d="M 178.8 236 
L 207.4 236 
L 207.4 207.4 
L 178.8 207.4 
z
" clip-path="url(#p2ff1076928)" style="fill: #08306b"/>
   </g>
   <g id="patch_21">
    <path d="M 236 236 
L 264.6 236 
L 264.6 207.4 
L 236 207.4 
z
" clip-path="url(#p2ff1076928)" style="fill: #08306b"/>
   </g>
   <g id="patch_22">
    <path d="M 64.4 264.6 
L 93 264.6 
L 93 236 
L 64.4 236 
z
" clip-path="url(#p2ff1076928)" style="fill: #08306b"/>
   </g>
   <g id="patch_23">
    <path d="M 93 264.6 
L 121.6 264.6 
L 121.6 236 
L 93 236 
z
" clip-path="url(#p2ff1076928)" style="fill: #08306b"/>
   </g>
   <g id="patch_24">
    <path d="M 178.8 264.6 
L 207.4 264.6 
L 207.4 236 
L 178.8 236 
z
" clip-path="url(#p2ff1076928)" style="fill: #08306b"/>
   </g>
   <g id="patch_25">
    <path d="M 207.4 264.6 
L 236 264.6 
L 236 236 
L 207.4 236 
z
" clip-path="url(#p2ff1076928)" style="fill: #08306b"/>
   </g>
   <g id="patch_26">
    <path d="M 7.2 293.2 
L 293.2 293.2 
L 293.2 7.2 
L 7.2 7.2 
L 7.2 293.2 
z
" clip-path="url(#p2ff1076928)" style="fill: none; stroke: #000000; stroke-width: 2; stroke-linejoin: miter"/>
   </g>
   <g id="line2d_1">
    <path d="M 7.2 293.2 
L 293.2 293.2 
" clip-path="url(#p2ff1076928)" style="fill: none; stroke: #9ca3af; stroke-width: 0.5; stroke-linecap: square"/>
   </g>
   <g id="line2d_2">
    <path d="M 7.2 293.2 
L 7.2 7.2 
" clip-path="url(#p2ff1076928)" style="fill: none; stroke: #9ca3af; stroke-width: 0.5; stroke-linecap: square"/>
   </g>
   <g id="line2d_3">
    <path d="M 7.2 264.6 
L 293.2 264.6 
" clip-path="url(#p2ff1076928)" style="fill: none; stroke: #9ca3af; stroke-width: 0.5; stroke-linecap: square"/>
   </g>
   <g id="line2d_4">
    <path d="M 35.8 293.2 
L 35.8 7.2 
" clip-path="url(#p2ff1076928)" style="fill: none; stroke: #9ca3af; stroke-width: 0.5; stroke-linecap: square"/>
   </g>
   <g id="line2d_5">
    <path d="M 7.2 236 
L 293.2 236 
" clip-path="url(#p2ff1076928)" style="fill: none; stroke: #9ca3af; stroke-width: 0.5; stroke-linecap: square"/>
   </g>
   <g id="line2d_6">
    <path d="M 64.4 293.2 
L 64.4 7.2 
" clip-path="url(#p2ff1076928)" style="fill: none; stroke: #9ca3af; stroke-width: 0.5; stroke-linecap: square"/>
   </g>
   <g id="line2d_7">
    <path d="M 7.2 207.4 
L 293.2 207.4 
" clip-path="url(#p2ff1076928)" style="fill: none; stroke: #9ca3af; stroke-width: 0.5; stroke-linecap: square"/>
   </g>
   <g id="line2d_8">
    <path d="M 93 293.2 
L 93 7.2 
" clip-path="url(#p2ff1076928)" style="fill: none; stroke: #9ca3af; stroke-width: 0.5; stroke-linecap: square"/>
   </g>
   <g id="line2d_9">
    <path d="M 7.2 178.8 
L 293.2 178.8 
" clip-path="url(#p2ff1076928)" style="fill: none; stroke: #9ca3af; stroke-width: 0.5; stroke-linecap: square"/>
   </g>
   <g id="line2d_10">
    <path d="M 121.6 293.2 
L 121.6 7.2 
" clip-path="url(#p2ff1076928)" style="fill: none; stroke: #9ca3af; stroke-width: 0.5; stroke-linecap: square"/>
   </g>
   <g id="line2d_11">
    <path d="M 7.2 150.2 
L 293.2 150.2 
" clip-path="url(#p2ff1076928)" style="fill: none; stroke: #9ca3af; stroke-width: 0.5; stroke-linecap: square"/>
   </g>
   <g id="line2d_12">
    <path d="M 150.2 293.2 
L 150.2 7.2 
" clip-path="url(#p2ff1076928)" style="fill: none; stroke: #9ca3af; stroke-width: 0.5; stroke-linecap: square"/>
   </g>
   <g id="line2d_13">
    <path d="M 7.2 121.6 
L 293.2 121.6 
" clip-path="url(#p2ff1076928)" style="fill: none; stroke: #9ca3af; stroke-width: 0.5; stroke-linecap: square"/>
   </g>
   <g id="line2d_14">
    <path d="M 178.8 293.2 
L 178.8 7.2 
" clip-path="url(#p2ff1076928)" style="fill: none; stroke: #9ca3af; stroke-width: 0.5; stroke-linecap: square"/>
   </g>
   <g id="line2d_15">
    <path d="M 7.2 93 
L 293.2 93 
" clip-path="url(#p2ff1076928)" style="fill: none; stroke: #9ca3af; stroke-width: 0.5; stroke-linecap: square"/>
   </g>
   <g id="line2d_16">
    <path d="M 207.4 293.2 
L 207.4 7.2 
" clip-path="url(#p2ff1076928)" style="fill: none; stroke: #9ca3af; stroke-width: 0.5; stroke-linecap: square"/>
   </g>
   <g id="line2d_17">
    <path d="M 7.2 64.4 
L 293.2 64.4 
" clip-path="url(#p2ff1076928)" style="fill: none; stroke: #9ca3af; stroke-width: 0.5; stroke-linecap: square"/>
   </g>
   <g id="line2d_18">
    <path d="M 236 293.2 
L 236 7.2 
" clip-path="url(#p2ff1076928)" style="fill: none; stroke: #9ca3af; stroke-width: 0.5; stroke-linecap: square"/>
   </g>
   <g id="line2d_19">
    <path d="M 7.2 35.8 
L 293.2 35.8 
" clip-path="url(#p2ff1076928)" style="fill: none; stroke: #9ca3af; stroke-width: 0.5; stroke-linecap: square"/>
   </g>
   <g id="line2d_20">
    <path d="M 264.6 293.2 
L 264.6 7.2 
" clip-path="url(#p2ff1076928)" style="fill: none; stroke: #9ca3af; stroke-width: 0.5; stroke-linecap: square"/>
   </g>
   <g id="line2d_21">
    <path d="M 7.2 7.2 
L 293.2 7.2 
" clip-path="url(#p2ff1076928)" style="fill: none; stroke: #9ca3af; stroke-width: 0.5; stroke-linecap: square"/>
   </g>
   <g id="line2d_22">
    <path d="M 293.2 293.2 
L 293.2 7.2 
" clip-path="url(#p2ff1076928)" style="fill: none; stroke: #9ca3af; stroke-width: 0.5; stroke-linecap: square"/>
   </g>
  </g>
 </g>
 <defs>
  <clipPath id="p2ff1076928">
   <rect x="7.2" y="7.2" width="286" height="286"/>
  </clipPath>
 </defs>
</svg>
